<svg id="Layer_4" data-name="Layer 4" xmlns="http://www.w3.org/2000/svg" viewBox="0 0 1293.89 595.28"><defs><style>.cls-1{fill:#fff;}.cls-2{fill:#ffce00;}.cls-2,.cls-3,.cls-4{stroke:#fff;stroke-miterlimit:10;stroke-width:3px;}.cls-3{fill:#320044;}</style></defs><polygon class="cls-1" points="277.6 235.75 252.14 235.75 252.14 209.24 235.75 209.24 235.75 276.73 252.14 276.73 252.14 250.41 277.6 250.41 277.6 276.73 293.99 276.73 293.99 209.24 277.6 209.24 277.6 235.75"/><path class="cls-1" d="M366.59,217.62a33.45,33.45,0,0,0-11.09-7.32,38.75,38.75,0,0,0-28,0,33.18,33.18,0,0,0-18.42,18.41,38.88,38.88,0,0,0,0,28,33.23,33.23,0,0,0,18.42,18.42,36.93,36.93,0,0,0,14.08,2.6,36.41,36.41,0,0,0,13.88-2.6,33.47,33.47,0,0,0,11.09-7.33,32.77,32.77,0,0,0,7.28-11.13,39.49,39.49,0,0,0,0-27.92A32.89,32.89,0,0,0,366.59,217.62Zm-8.2,32.88a18.85,18.85,0,0,1-3.81,6.22,17,17,0,0,1-5.78,4.1,19,19,0,0,1-14.56,0,17.78,17.78,0,0,1-5.83-4.05,17.23,17.23,0,0,1-3.81-6.22,23,23,0,0,1-1.31-7.86,22.62,22.62,0,0,1,1.31-7.81,17.85,17.85,0,0,1,3.81-6.22,17.6,17.6,0,0,1,5.83-4.09,19,19,0,0,1,14.56,0,17.1,17.1,0,0,1,5.78,4.09,19,19,0,0,1,3.81,6.22,23.27,23.27,0,0,1,0,15.62Z"/><path class="cls-1" d="M429.6,212.13a22.08,22.08,0,0,0-11.33-2.89H389.15v67.49h16.39V254.17h12.73a21.57,21.57,0,0,0,11.33-3,22.07,22.07,0,0,0,7.9-8.15,23.23,23.23,0,0,0,2.95-11.71A21.94,21.94,0,0,0,437.5,220,21.68,21.68,0,0,0,429.6,212.13Zm-7,23.72a8.09,8.09,0,0,1-2.8,2.89A7.23,7.23,0,0,1,416,239.8h-10.7V223.7H416a7.84,7.84,0,0,1,3.86,1,7.63,7.63,0,0,1,2.8,2.7,8.07,8.07,0,0,1,1.06,4.25A8.39,8.39,0,0,1,422.61,235.85Z"/><polygon class="cls-1" points="468.88 249.06 495.69 249.06 495.69 235.75 468.88 235.75 468.88 223.22 500.03 223.22 500.03 209.24 452.98 209.24 452.98 276.73 500.99 276.73 500.99 262.75 468.88 262.75 468.88 249.06"/><path class="cls-1" d="M557.45,241.92a29.7,29.7,0,0,0-7.43-4.24,53.72,53.72,0,0,0-9.59-2.8,35.54,35.54,0,0,1-4.44-1,18.55,18.55,0,0,1-3.76-1.54,9.13,9.13,0,0,1-2.6-2.07,4.22,4.22,0,0,1-1-2.8,4.54,4.54,0,0,1,1.16-3.13,7.51,7.51,0,0,1,3.23-2,15.21,15.21,0,0,1,5-.72,17.3,17.3,0,0,1,5.44.87,19.16,19.16,0,0,1,5,2.5,21.87,21.87,0,0,1,4.39,4.15L563,219.36a24.17,24.17,0,0,0-14-10.27,41,41,0,0,0-11.42-1.4,31.11,31.11,0,0,0-9.65,1.5,26,26,0,0,0-8.14,4.24,20.91,20.91,0,0,0-5.6,6.56,17.19,17.19,0,0,0-2.07,8.34,20.7,20.7,0,0,0,1.35,7.66,17.17,17.17,0,0,0,4.1,6.08,23.39,23.39,0,0,0,6.89,4.48,53.28,53.28,0,0,0,9.74,3.09c1.35.25,2.67.56,4,.91a30.4,30.4,0,0,1,3.67,1.25,17,17,0,0,1,3,1.6,6.87,6.87,0,0,1,2,2,4.83,4.83,0,0,1,.73,2.6,4.67,4.67,0,0,1-1.16,3.23,7.19,7.19,0,0,1-3.28,2,15.51,15.51,0,0,1-4.72.67,24,24,0,0,1-10.08-2.21q-4.87-2.22-9.69-8.68l-9.93,11.28a37.89,37.89,0,0,0,7.42,7.18,30.67,30.67,0,0,0,9.5,4.63,42.13,42.13,0,0,0,12,1.59,34.28,34.28,0,0,0,13.64-2.55,21.52,21.52,0,0,0,9.35-7.43,20.16,20.16,0,0,0,3.42-11.9,17.87,17.87,0,0,0-1.68-8A17.56,17.56,0,0,0,557.45,241.92Z"/><polygon class="cls-1" points="570.89 223.7 590.95 223.7 590.95 276.73 607.34 276.73 607.34 223.7 627.88 223.7 627.88 209.24 570.89 209.24 570.89 223.7"/><path class="cls-1" d="M692.29,217.62a33.45,33.45,0,0,0-11.09-7.32,38.75,38.75,0,0,0-28,0,33.18,33.18,0,0,0-18.42,18.41,38.88,38.88,0,0,0,0,28,33.23,33.23,0,0,0,18.42,18.42,36.91,36.91,0,0,0,14.07,2.6,36.42,36.42,0,0,0,13.89-2.6,33.47,33.47,0,0,0,11.09-7.33,32.74,32.74,0,0,0,7.27-11.13,39.34,39.34,0,0,0,0-27.92A32.87,32.87,0,0,0,692.29,217.62Zm-8.2,32.88a18.85,18.85,0,0,1-3.81,6.22,17.09,17.09,0,0,1-5.78,4.1,19,19,0,0,1-14.56,0,17.82,17.82,0,0,1-5.84-4.05,17.21,17.21,0,0,1-3.8-6.22,23,23,0,0,1-1.31-7.86,22.62,22.62,0,0,1,1.31-7.81,17.83,17.83,0,0,1,3.8-6.22,17.64,17.64,0,0,1,5.84-4.09,19,19,0,0,1,14.56,0,17.2,17.2,0,0,1,5.78,4.09,19,19,0,0,1,3.81,6.22,23.27,23.27,0,0,1,0,15.62Z"/><path class="cls-1" d="M759.78,225.92c0,2.63,0,5.07.05,7.32s.09,4.34.19,6.27.22,3.83.38,5.69.34,3.76.53,5.69c.05.45.11.92.16,1.38l-31.59-43H714.85v67.49h15.91V254.17c0-1.61,0-3.07,0-4.39s-.08-2.65-.15-4-.18-2.86-.33-4.53-.36-3.59-.58-5.74c0-.3-.07-.62-.1-.94l31.29,42.16h14.85V209.24H759.78Z"/><polygon class="cls-1" points="808.57 262.75 808.57 249.06 835.37 249.06 835.37 235.75 808.57 235.75 808.57 223.22 839.71 223.22 839.71 209.24 792.65 209.24 792.65 276.73 840.67 276.73 840.67 262.75 808.57 262.75"/><polygon class="cls-2" points="102.02 180.82 73.46 180.82 73.46 235.95 73.46 300.37 102.02 300.37 102.02 235.95 102.02 180.82"/><polygon class="cls-3" points="201.08 180.64 116.48 180.64 116.48 234.1 184.59 234.1 184.59 235.95 184.59 300.37 201.08 300.37 201.08 235.95 201.08 234.1 201.08 234.1 201.08 180.64"/><rect class="cls-4" x="116.48" y="247.9" width="53.46" height="53.46" transform="translate(417.84 131.41) rotate(90)"/></svg>