<svg id="Layer_4" data-name="Layer 4" xmlns="http://www.w3.org/2000/svg" viewBox="0 0 841.89 595.28"><defs><style>.cls-1{fill:#ffce00;}.cls-1,.cls-3,.cls-4{stroke:#fff;stroke-miterlimit:10;}.cls-2{fill:#fff;}.cls-3{fill:#320044;}</style></defs><polygon class="cls-1" points="398.02 186.82 369.46 186.82 369.46 241.95 369.46 306.37 398.02 306.37 398.02 241.95 398.02 186.82"/><polygon class="cls-2" points="231.22 351.68 210.57 351.68 210.57 330.18 197.28 330.18 197.28 384.91 210.57 384.91 210.57 363.56 231.22 363.56 231.22 384.91 244.51 384.91 244.51 330.18 231.22 330.18 231.22 351.68"/><path class="cls-2" d="M303.39,337a27.09,27.09,0,0,0-9-6,31.53,31.53,0,0,0-22.68,0A27,27,0,0,0,256.78,346a31.53,31.53,0,0,0,0,22.68,27,27,0,0,0,14.94,14.93,29.82,29.82,0,0,0,11.42,2.11,29.43,29.43,0,0,0,11.26-2.11,27.21,27.21,0,0,0,9-5.94,26.43,26.43,0,0,0,5.9-9,32,32,0,0,0,0-22.64A26.56,26.56,0,0,0,303.39,337Zm-6.65,26.66a15.36,15.36,0,0,1-3.09,5.05A13.87,13.87,0,0,1,289,372a15.49,15.49,0,0,1-11.81,0,14.54,14.54,0,0,1-4.73-3.29,14,14,0,0,1-3.09-5,18.75,18.75,0,0,1-1.05-6.37,18.45,18.45,0,0,1,1.05-6.34,14.77,14.77,0,0,1,3.09-5,14.33,14.33,0,0,1,4.73-3.32,15.37,15.37,0,0,1,11.81,0,13.87,13.87,0,0,1,4.69,3.32,15.42,15.42,0,0,1,3.09,5,18.79,18.79,0,0,1,0,12.67Z"/><path class="cls-2" d="M354.49,332.52a18,18,0,0,0-9.19-2.35H321.69v54.74H335v-18.3H345.3a17.45,17.45,0,0,0,9.19-2.42,18,18,0,0,0,6.41-6.61,18.83,18.83,0,0,0,2.39-9.5,17.68,17.68,0,0,0-8.8-15.56Zm-5.67,19.24a6.53,6.53,0,0,1-2.27,2.34,5.83,5.83,0,0,1-3.13.86h-8.68V341.9h8.68a6.35,6.35,0,0,1,3.13.79,6.11,6.11,0,0,1,2.27,2.19,6.48,6.48,0,0,1,.86,3.44A6.78,6.78,0,0,1,348.82,351.76Z"/><polygon class="cls-2" points="386.35 362.47 408.09 362.47 408.09 351.68 386.35 351.68 386.35 341.51 411.61 341.51 411.61 330.18 373.45 330.18 373.45 384.91 412.39 384.91 412.39 373.57 386.35 373.57 386.35 362.47"/><path class="cls-2" d="M458.17,356.68a24.06,24.06,0,0,0-6-3.44,43.84,43.84,0,0,0-7.78-2.27,28.66,28.66,0,0,1-3.6-.82,14.94,14.94,0,0,1-3-1.25,7.31,7.31,0,0,1-2.11-1.68,3.42,3.42,0,0,1-.78-2.27,3.68,3.68,0,0,1,.94-2.54,6.11,6.11,0,0,1,2.62-1.64,12.28,12.28,0,0,1,4-.59,14,14,0,0,1,4.41.71,15.5,15.5,0,0,1,4.07,2,17.51,17.51,0,0,1,3.56,3.36l8.21-7.89a19.57,19.57,0,0,0-11.38-8.33,33,33,0,0,0-9.26-1.14,25.29,25.29,0,0,0-7.83,1.22,20.92,20.92,0,0,0-6.6,3.44,16.83,16.83,0,0,0-4.54,5.31,14,14,0,0,0-1.68,6.77,16.79,16.79,0,0,0,1.1,6.21,13.77,13.77,0,0,0,3.32,4.93,19.18,19.18,0,0,0,5.59,3.64,42.81,42.81,0,0,0,7.9,2.5c1.09.21,2.16.46,3.2.74a24.63,24.63,0,0,1,3,1,13.1,13.1,0,0,1,2.43,1.29,5.54,5.54,0,0,1,1.6,1.64,3.92,3.92,0,0,1,.59,2.11,3.78,3.78,0,0,1-.94,2.62,5.82,5.82,0,0,1-2.66,1.6,12.39,12.39,0,0,1-3.83.55,19.5,19.5,0,0,1-8.17-1.8q-3.94-1.8-7.86-7l-8.05,9.14a30.74,30.74,0,0,0,6,5.83,25,25,0,0,0,7.7,3.75,34.13,34.13,0,0,0,9.74,1.29,27.76,27.76,0,0,0,11.06-2.07,17.45,17.45,0,0,0,7.58-6,16.37,16.37,0,0,0,2.78-9.66,14.44,14.44,0,0,0-1.37-6.45A14.18,14.18,0,0,0,458.17,356.68Z"/><polygon class="cls-2" points="469.08 341.9 485.34 341.9 485.34 384.91 498.64 384.91 498.64 341.9 515.29 341.9 515.29 330.18 469.08 330.18 469.08 341.9"/><path class="cls-2" d="M567.53,337a27,27,0,0,0-9-6,31.5,31.5,0,0,0-22.67,0A27,27,0,0,0,520.92,346a31.53,31.53,0,0,0,0,22.68,27,27,0,0,0,14.94,14.93,29.8,29.8,0,0,0,11.41,2.11,29.39,29.39,0,0,0,11.26-2.11,27.15,27.15,0,0,0,9-5.94,26.43,26.43,0,0,0,5.9-9,32,32,0,0,0,0-22.64A26.56,26.56,0,0,0,567.53,337Zm-6.65,26.66a15.36,15.36,0,0,1-3.09,5.05A13.87,13.87,0,0,1,553.1,372a15.49,15.49,0,0,1-11.81,0,14.54,14.54,0,0,1-4.73-3.29,14,14,0,0,1-3.09-5,18.75,18.75,0,0,1-1.05-6.37,18.45,18.45,0,0,1,1.05-6.34,14.77,14.77,0,0,1,3.09-5,14.33,14.33,0,0,1,4.73-3.32,15.37,15.37,0,0,1,11.81,0,13.87,13.87,0,0,1,4.69,3.32,15.42,15.42,0,0,1,3.09,5,18.79,18.79,0,0,1,0,12.67Z"/><path class="cls-2" d="M622.26,343.7c0,2.14,0,4.12,0,5.95s.08,3.51.16,5.08.18,3.1.31,4.61.27,3.05.43,4.61c0,.37.09.75.13,1.13l-25.62-34.91H585.82v54.74h12.91v-18.3c0-1.3,0-2.49,0-3.55s-.07-2.15-.12-3.25-.14-2.32-.27-3.67-.29-2.91-.47-4.66c0-.24-.06-.5-.08-.76l25.37,34.19h12V330.17h-12.9Z"/><polygon class="cls-2" points="661.83 373.57 661.83 362.47 683.57 362.47 683.57 351.68 661.83 351.68 661.83 341.51 687.09 341.51 687.09 330.18 648.93 330.18 648.93 384.91 687.87 384.91 687.87 373.57 661.83 373.57"/><polygon class="cls-3" points="497.08 186.64 412.48 186.64 412.48 240.1 480.59 240.1 480.59 241.95 480.59 306.37 497.08 306.37 497.08 241.95 497.08 240.1 497.08 240.1 497.08 186.64"/><rect class="cls-4" x="412.48" y="253.9" width="53.46" height="53.46" transform="translate(719.84 -158.59) rotate(90)"/></svg>