<svg xmlns="http://www.w3.org/2000/svg" viewBox="0 0 612.17 240.05"><defs><style>.cls-1{fill:#fff;stroke:#1d1d1b;}.cls-1,.cls-2,.cls-3,.cls-4{stroke-miterlimit:10;}.cls-2{fill:#ffce00;}.cls-2,.cls-3,.cls-4{stroke:#fff;stroke-width:3px;}.cls-3{fill:#320044;}</style></defs><g id="Layer_2" data-name="Layer 2"><g id="Layer_4" data-name="Layer 4"><polygon class="cls-1" points="48.59 197.61 23.14 197.61 23.14 171.1 6.75 171.1 6.75 238.59 23.14 238.59 23.14 212.27 48.59 212.27 48.59 238.59 64.98 238.59 64.98 171.1 48.59 171.1 48.59 197.61"/><path class="cls-1" d="M137.58,179.49a33.28,33.28,0,0,0-11.08-7.33,38.77,38.77,0,0,0-28,0,33.28,33.28,0,0,0-18.41,18.41,38.77,38.77,0,0,0,0,28A33.28,33.28,0,0,0,98.53,237a36.81,36.81,0,0,0,14.08,2.6A36.31,36.31,0,0,0,126.5,237a33.28,33.28,0,0,0,11.08-7.33,32.52,32.52,0,0,0,7.28-11.13,39.34,39.34,0,0,0,0-27.92A32.7,32.7,0,0,0,137.58,179.49Zm-8.19,32.87a18.75,18.75,0,0,1-3.81,6.22,17,17,0,0,1-5.79,4.1,18.22,18.22,0,0,1-20.39-4.05,17.29,17.29,0,0,1-3.81-6.22,23,23,0,0,1-1.3-7.85,22.63,22.63,0,0,1,1.3-7.82,17.86,17.86,0,0,1,3.81-6.21,17.58,17.58,0,0,1,5.83-4.1,19,19,0,0,1,14.56,0,17,17,0,0,1,5.79,4.1,18.8,18.8,0,0,1,3.81,6.21,23.27,23.27,0,0,1,0,15.62Z"/><path class="cls-1" d="M200.59,174a22.08,22.08,0,0,0-11.33-2.89H160.15v67.49h16.39V216h12.72a21.57,21.57,0,0,0,11.33-3,22.1,22.1,0,0,0,7.91-8.15,23.22,23.22,0,0,0,2.94-11.71A21.79,21.79,0,0,0,200.59,174Zm-7,23.72a8.06,8.06,0,0,1-2.79,2.89,7.25,7.25,0,0,1-3.86,1.06h-10.7v-16.1H187a7.87,7.87,0,0,1,3.86,1,7.68,7.68,0,0,1,2.79,2.7,8,8,0,0,1,1.06,4.25A8.29,8.29,0,0,1,193.6,197.71Z"/><polygon class="cls-1" points="239.88 210.92 266.68 210.92 266.68 197.61 239.88 197.61 239.88 185.08 271.02 185.08 271.02 171.1 223.97 171.1 223.97 238.59 271.99 238.59 271.99 224.61 239.88 224.61 239.88 210.92"/><path class="cls-1" d="M328.44,203.78a29.63,29.63,0,0,0-7.42-4.24,53.59,53.59,0,0,0-9.6-2.8,35.38,35.38,0,0,1-4.43-1,18.31,18.31,0,0,1-3.76-1.54,9.18,9.18,0,0,1-2.61-2.07,4.25,4.25,0,0,1-1-2.8,4.51,4.51,0,0,1,1.16-3.13,7.45,7.45,0,0,1,3.23-2,15.14,15.14,0,0,1,5-.72,17.36,17.36,0,0,1,5.45.87,19.25,19.25,0,0,1,5,2.5,21.35,21.35,0,0,1,4.39,4.15L334,181.22A24.19,24.19,0,0,0,320,171a41.1,41.1,0,0,0-11.43-1.4,31.05,31.05,0,0,0-9.64,1.5,26.29,26.29,0,0,0-8.15,4.24,20.88,20.88,0,0,0-5.59,6.56,17.19,17.19,0,0,0-2.07,8.34,20.49,20.49,0,0,0,1.35,7.66,16.92,16.92,0,0,0,4.09,6.08,23.45,23.45,0,0,0,6.9,4.48,53,53,0,0,0,9.74,3.09c1.35.25,2.66.56,3.95.91a30.86,30.86,0,0,1,3.66,1.26,16,16,0,0,1,3,1.59,6.9,6.9,0,0,1,2,2,4.83,4.83,0,0,1,.72,2.61,4.66,4.66,0,0,1-1.16,3.23,7.23,7.23,0,0,1-3.27,2,15.57,15.57,0,0,1-4.73.68,24,24,0,0,1-10.07-2.22q-4.87-2.22-9.69-8.68l-9.94,11.28a38.28,38.28,0,0,0,7.43,7.19,30.76,30.76,0,0,0,9.5,4.62,42.06,42.06,0,0,0,12,1.59A34.25,34.25,0,0,0,322.17,237a21.6,21.6,0,0,0,9.36-7.42A20.22,20.22,0,0,0,335,217.67a17.9,17.9,0,0,0-1.69-8A17.42,17.42,0,0,0,328.44,203.78Z"/><polygon class="cls-1" points="341.89 185.56 361.94 185.56 361.94 238.59 378.34 238.59 378.34 185.56 398.87 185.56 398.87 171.1 341.89 171.1 341.89 185.56"/><path class="cls-1" d="M463.28,179.49a33.22,33.22,0,0,0-11.09-7.33,38.75,38.75,0,0,0-28,0,33.2,33.2,0,0,0-18.41,18.41,38.77,38.77,0,0,0,0,28A33.2,33.2,0,0,0,424.23,237a36.74,36.74,0,0,0,14.08,2.6,36.22,36.22,0,0,0,13.88-2.6,33.22,33.22,0,0,0,11.09-7.33,32.52,32.52,0,0,0,7.28-11.13,39.34,39.34,0,0,0,0-27.92A32.7,32.7,0,0,0,463.28,179.49Zm-8.19,32.87a18.91,18.91,0,0,1-3.81,6.22,17,17,0,0,1-5.79,4.1,18.22,18.22,0,0,1-20.39-4.05,17.29,17.29,0,0,1-3.81-6.22,23,23,0,0,1-1.3-7.85,22.63,22.63,0,0,1,1.3-7.82,17.86,17.86,0,0,1,3.81-6.21,17.58,17.58,0,0,1,5.83-4.1,19,19,0,0,1,14.56,0,17,17,0,0,1,5.79,4.1,19,19,0,0,1,3.81,6.21,23.27,23.27,0,0,1,0,15.62Z"/><path class="cls-1" d="M530.77,187.78c0,2.63,0,5.08.05,7.33s.1,4.33.19,6.26.23,3.83.39,5.69.34,3.76.53,5.69c0,.45.11.92.16,1.38l-31.59-43H485.84v67.49h15.91V216c0-1.61,0-3.07-.05-4.39s-.08-2.65-.14-4-.18-2.86-.34-4.53-.35-3.58-.58-5.74c0-.29-.06-.62-.1-.93l31.29,42.15h14.85V171.1H530.77Z"/><polygon class="cls-1" points="579.56 224.61 579.56 210.92 606.36 210.92 606.36 197.61 579.56 197.61 579.56 185.08 610.7 185.08 610.7 171.1 563.65 171.1 563.65 238.59 611.67 238.59 611.67 224.61 579.56 224.61"/><line class="cls-1" x1="30.1" y1="212.27" y2="212.27"/><polygon class="cls-2" points="258.01 1.68 229.46 1.68 229.46 56.81 229.46 121.23 258.01 121.23 258.01 56.81 258.01 1.68"/><polygon class="cls-3" points="357.07 1.5 272.48 1.5 272.48 54.96 340.59 54.96 340.59 56.81 340.59 121.23 357.07 121.23 357.07 56.81 357.07 54.96 357.07 54.96 357.07 1.5"/><rect class="cls-4" x="272.48" y="68.76" width="53.46" height="53.46" transform="translate(394.69 -203.72) rotate(90)"/></g></g></svg>