<svg xmlns="http://www.w3.org/2000/svg" viewBox="0 0 841.89 595.28"><defs><style>.cls-1{fill:#fff;}.cls-2{fill:#ffce00;}.cls-3{fill:#320044;}</style></defs><g id="Layer_3" data-name="Layer 3"><rect class="cls-1" x="339.31" y="149.69" width="206" height="184"/></g><g id="Layer_4" data-name="Layer 4"><polygon class="cls-2" points="398.02 186.82 369.46 186.82 369.46 241.95 369.46 306.37 398.02 306.37 398.02 241.95 398.02 186.82"/><polygon class="cls-1" points="215.22 367.68 194.57 367.68 194.57 346.18 181.28 346.18 181.28 400.91 194.57 400.91 194.57 379.56 215.22 379.56 215.22 400.91 228.51 400.91 228.51 346.18 215.22 346.18 215.22 367.68"/><path class="cls-1" d="M287.39,353a27.09,27.09,0,0,0-9-6,31.53,31.53,0,0,0-22.68,0A27,27,0,0,0,240.78,362a31.53,31.53,0,0,0,0,22.68,27,27,0,0,0,14.94,14.93,29.82,29.82,0,0,0,11.42,2.11,29.43,29.43,0,0,0,11.26-2.11,27.21,27.21,0,0,0,9-5.94,26.43,26.43,0,0,0,5.9-9,32,32,0,0,0,0-22.64A26.56,26.56,0,0,0,287.39,353Zm-6.65,26.66a15.36,15.36,0,0,1-3.09,5.05A13.87,13.87,0,0,1,273,388a15.49,15.49,0,0,1-11.81,0,14.54,14.54,0,0,1-4.73-3.29,14,14,0,0,1-3.09-5,18.75,18.75,0,0,1-1.05-6.37,18.45,18.45,0,0,1,1.05-6.34,14.77,14.77,0,0,1,3.09-5,14.33,14.33,0,0,1,4.73-3.32,15.37,15.37,0,0,1,11.81,0,13.87,13.87,0,0,1,4.69,3.32,15.42,15.42,0,0,1,3.09,5,18.79,18.79,0,0,1,0,12.67Z"/><path class="cls-1" d="M338.49,348.52a18,18,0,0,0-9.19-2.35H305.69v54.74H319v-18.3H329.3a17.45,17.45,0,0,0,9.19-2.42,18,18,0,0,0,6.41-6.61,18.83,18.83,0,0,0,2.39-9.5,17.68,17.68,0,0,0-8.8-15.56Zm-5.67,19.24a6.53,6.53,0,0,1-2.27,2.34,5.83,5.83,0,0,1-3.13.86h-8.68V357.9h8.68a6.35,6.35,0,0,1,3.13.79,6.11,6.11,0,0,1,2.27,2.19,6.48,6.48,0,0,1,.86,3.44A6.78,6.78,0,0,1,332.82,367.76Z"/><polygon class="cls-1" points="370.35 378.47 392.09 378.47 392.09 367.68 370.35 367.68 370.35 357.51 395.61 357.51 395.61 346.18 357.45 346.18 357.45 400.91 396.39 400.91 396.39 389.57 370.35 389.57 370.35 378.47"/><path class="cls-1" d="M442.17,372.68a24.06,24.06,0,0,0-6-3.44,43.84,43.84,0,0,0-7.78-2.27,28.66,28.66,0,0,1-3.6-.82,14.94,14.94,0,0,1-3-1.25,7.31,7.31,0,0,1-2.11-1.68,3.42,3.42,0,0,1-.78-2.27,3.68,3.68,0,0,1,.94-2.54,6.11,6.11,0,0,1,2.62-1.64,12.28,12.28,0,0,1,4-.59,14,14,0,0,1,4.41.71,15.5,15.5,0,0,1,4.07,2,17.51,17.51,0,0,1,3.56,3.36l8.21-7.89a19.57,19.57,0,0,0-11.38-8.33,33,33,0,0,0-9.26-1.14,25.29,25.29,0,0,0-7.83,1.22,20.92,20.92,0,0,0-6.6,3.44,16.83,16.83,0,0,0-4.54,5.31,14,14,0,0,0-1.68,6.77,16.79,16.79,0,0,0,1.1,6.21,13.77,13.77,0,0,0,3.32,4.93,19.18,19.18,0,0,0,5.59,3.64,42.81,42.81,0,0,0,7.9,2.5c1.09.21,2.16.46,3.2.74a24.63,24.63,0,0,1,3,1,13.1,13.1,0,0,1,2.43,1.29,5.54,5.54,0,0,1,1.6,1.64,3.92,3.92,0,0,1,.59,2.11,3.78,3.78,0,0,1-.94,2.62,5.82,5.82,0,0,1-2.66,1.6,12.39,12.39,0,0,1-3.83.55,19.5,19.5,0,0,1-8.17-1.8q-3.94-1.8-7.86-7l-8.05,9.14a30.74,30.74,0,0,0,6,5.83,25,25,0,0,0,7.7,3.75,34.13,34.13,0,0,0,9.74,1.29,27.76,27.76,0,0,0,11.06-2.07,17.45,17.45,0,0,0,7.58-6,16.37,16.37,0,0,0,2.78-9.66,14.44,14.44,0,0,0-1.37-6.45A14.18,14.18,0,0,0,442.17,372.68Z"/><polygon class="cls-1" points="453.08 357.9 469.34 357.9 469.34 400.91 482.64 400.91 482.64 357.9 499.29 357.9 499.29 346.18 453.08 346.18 453.08 357.9"/><path class="cls-1" d="M551.53,353a27,27,0,0,0-9-6,31.5,31.5,0,0,0-22.67,0A27,27,0,0,0,504.92,362a31.53,31.53,0,0,0,0,22.68,27,27,0,0,0,14.94,14.93,29.8,29.8,0,0,0,11.41,2.11,29.39,29.39,0,0,0,11.26-2.11,27.15,27.15,0,0,0,9-5.94,26.43,26.43,0,0,0,5.9-9,32,32,0,0,0,0-22.64A26.56,26.56,0,0,0,551.53,353Zm-6.65,26.66a15.36,15.36,0,0,1-3.09,5.05A13.87,13.87,0,0,1,537.1,388a15.49,15.49,0,0,1-11.81,0,14.54,14.54,0,0,1-4.73-3.29,14,14,0,0,1-3.09-5,18.75,18.75,0,0,1-1.05-6.37,18.45,18.45,0,0,1,1.05-6.34,14.77,14.77,0,0,1,3.09-5,14.33,14.33,0,0,1,4.73-3.32,15.37,15.37,0,0,1,11.81,0,13.87,13.87,0,0,1,4.69,3.32,15.42,15.42,0,0,1,3.09,5,18.79,18.79,0,0,1,0,12.67Z"/><path class="cls-1" d="M606.26,359.7c0,2.14,0,4.12,0,5.95s.08,3.51.16,5.08.18,3.1.31,4.61.27,3.05.43,4.61c0,.37.09.75.13,1.13l-25.62-34.91H569.82v54.74h12.91v-18.3c0-1.3,0-2.49,0-3.55s-.07-2.15-.12-3.25-.14-2.32-.27-3.67-.29-2.91-.47-4.66c0-.24-.06-.5-.08-.76l25.37,34.19h12V346.17h-12.9Z"/><polygon class="cls-1" points="645.83 389.57 645.83 378.47 667.57 378.47 667.57 367.68 645.83 367.68 645.83 357.51 671.09 357.51 671.09 346.18 632.93 346.18 632.93 400.91 671.87 400.91 671.87 389.57 645.83 389.57"/><polygon class="cls-3" points="497.08 186.64 412.48 186.64 412.48 240.1 480.59 240.1 480.59 241.95 480.59 306.37 497.08 306.37 497.08 241.95 497.08 240.1 497.08 240.1 497.08 186.64"/><rect x="412.48" y="253.9" width="53.46" height="53.46" transform="translate(719.84 -158.59) rotate(90)"/></g></svg>