<svg xmlns="http://www.w3.org/2000/svg" viewBox="0 0 841.89 595.28"><defs><style>.cls-1{fill:#fff;}.cls-2{fill:#ffce00;}.cls-3{fill:#320044;}</style></defs><g id="Layer_3" data-name="Layer 3"><rect class="cls-1" x="384.35" y="214.73" width="99.67" height="89.02"/></g><g id="Layer_4" data-name="Layer 4"><polygon class="cls-2" points="412.76 232.7 398.94 232.7 398.94 259.37 398.94 290.53 412.76 290.53 412.76 259.37 412.76 232.7"/><polygon class="cls-1" points="324.32 320.2 314.33 320.2 314.33 309.79 307.9 309.79 307.9 336.27 314.33 336.27 314.33 325.95 324.32 325.95 324.32 336.27 330.75 336.27 330.75 309.79 324.32 309.79 324.32 320.2"/><path class="cls-1" d="M359.23,313.08a13,13,0,0,0-4.35-2.87,15.26,15.26,0,0,0-11,0,13,13,0,0,0-7.22,7.22,15.15,15.15,0,0,0,0,11,13,13,0,0,0,7.22,7.22,14.52,14.52,0,0,0,5.53,1,14.24,14.24,0,0,0,5.44-1,13,13,0,0,0,4.35-2.87,12.9,12.9,0,0,0,2.86-4.37,15.52,15.52,0,0,0,0-11A12.91,12.91,0,0,0,359.23,313.08ZM356,326a7.45,7.45,0,0,1-1.5,2.45,6.73,6.73,0,0,1-2.27,1.6,7.44,7.44,0,0,1-5.71,0,7.14,7.14,0,0,1-2.29-1.59,6.8,6.8,0,0,1-1.49-2.44,9,9,0,0,1-.51-3.08,8.85,8.85,0,0,1,.51-3.06,7,7,0,0,1,1.49-2.44,6.9,6.9,0,0,1,2.29-1.61,7.44,7.44,0,0,1,5.71,0,6.63,6.63,0,0,1,2.27,1.61,7.3,7.3,0,0,1,1.5,2.44,9.1,9.1,0,0,1,0,6.12Z"/><path class="cls-1" d="M384,310.93a8.64,8.64,0,0,0-4.45-1.14H368.09v26.48h6.43v-8.85h5a8.47,8.47,0,0,0,4.45-1.17,8.66,8.66,0,0,0,3.1-3.2,9.1,9.1,0,0,0,1.15-4.59,8.58,8.58,0,0,0-1.15-4.43A8.46,8.46,0,0,0,384,310.93Zm-2.75,9.3a3.14,3.14,0,0,1-1.09,1.14,2.85,2.85,0,0,1-1.52.42h-4.2v-6.32h4.2a3,3,0,0,1,1.52.38,2.84,2.84,0,0,1,1.09,1.06,3.08,3.08,0,0,1,.42,1.66A3.2,3.2,0,0,1,381.21,320.23Z"/><polygon class="cls-1" points="399.37 325.42 409.89 325.42 409.89 320.2 399.37 320.2 399.37 315.28 411.59 315.28 411.59 309.79 393.13 309.79 393.13 336.27 411.97 336.27 411.97 330.79 399.37 330.79 399.37 325.42"/><path class="cls-1" d="M434.12,322.62a11.67,11.67,0,0,0-2.91-1.67,21,21,0,0,0-3.77-1.09,15.77,15.77,0,0,1-1.74-.4,7.64,7.64,0,0,1-1.47-.61,3.58,3.58,0,0,1-1-.81,1.62,1.62,0,0,1-.38-1.1,1.79,1.79,0,0,1,.45-1.23,3,3,0,0,1,1.27-.79,5.91,5.91,0,0,1,1.95-.28,6.69,6.69,0,0,1,2.13.34,7.26,7.26,0,0,1,2,1,8.21,8.21,0,0,1,1.72,1.63l4-3.82a10.14,10.14,0,0,0-2.29-2.46,9.77,9.77,0,0,0-3.22-1.57,15.9,15.9,0,0,0-4.48-.55,12.35,12.35,0,0,0-3.79.58,10.41,10.41,0,0,0-3.19,1.67,8.44,8.44,0,0,0-2.2,2.57,6.77,6.77,0,0,0-.81,3.27,8.19,8.19,0,0,0,.53,3,6.57,6.57,0,0,0,1.61,2.38,9,9,0,0,0,2.7,1.76,20.24,20.24,0,0,0,3.82,1.21c.53.11,1,.23,1.55.36a11.58,11.58,0,0,1,1.44.5,5.66,5.66,0,0,1,1.18.62,2.88,2.88,0,0,1,.77.79,1.92,1.92,0,0,1,.28,1,1.84,1.84,0,0,1-.45,1.26,2.83,2.83,0,0,1-1.29.78,6,6,0,0,1-1.85.26,9.42,9.42,0,0,1-3.95-.87,10.45,10.45,0,0,1-3.81-3.4L415,331.39a14.92,14.92,0,0,0,2.91,2.82A12.11,12.11,0,0,0,421.6,336a16.38,16.38,0,0,0,4.71.62,13.37,13.37,0,0,0,5.35-1,8.47,8.47,0,0,0,3.67-2.91,7.89,7.89,0,0,0,1.34-4.67,7,7,0,0,0-.66-3.13A6.77,6.77,0,0,0,434.12,322.62Z"/><polygon class="cls-1" points="439.4 315.47 447.27 315.47 447.27 336.27 453.7 336.27 453.7 315.47 461.76 315.47 461.76 309.79 439.4 309.79 439.4 315.47"/><path class="cls-1" d="M487,313.08a13.24,13.24,0,0,0-4.35-2.87,15.26,15.26,0,0,0-11,0,13,13,0,0,0-7.23,7.22,15.28,15.28,0,0,0,0,11,13,13,0,0,0,7.23,7.22,15.26,15.26,0,0,0,11,0,13.24,13.24,0,0,0,4.35-2.87,12.87,12.87,0,0,0,2.85-4.37,15.37,15.37,0,0,0,0-11A12.88,12.88,0,0,0,487,313.08ZM483.81,326a7.43,7.43,0,0,1-1.49,2.45,6.83,6.83,0,0,1-2.27,1.6,7.46,7.46,0,0,1-5.72,0,7,7,0,0,1-2.28-1.59,6.68,6.68,0,0,1-1.5-2.44,9,9,0,0,1-.51-3.08,8.85,8.85,0,0,1,.51-3.06,6.85,6.85,0,0,1,1.5-2.44,6.76,6.76,0,0,1,2.28-1.61,7.46,7.46,0,0,1,5.72,0,6.72,6.72,0,0,1,2.27,1.61,7.28,7.28,0,0,1,1.49,2.44,9.1,9.1,0,0,1,0,6.12Z"/><path class="cls-1" d="M513.51,316.34c0,1,0,2,0,2.87s0,1.71.07,2.46.09,1.5.16,2.23.13,1.48.2,2.24l.06.54-12.39-16.89h-5.75v26.48h6.24v-8.85c0-.63,0-1.2,0-1.72s0-1-.05-1.57-.07-1.12-.14-1.78-.14-1.4-.22-2.25l0-.37,12.28,16.54h5.82V309.79h-6.24Z"/><polygon class="cls-1" points="532.65 330.79 532.65 325.42 543.17 325.42 543.17 320.2 532.65 320.2 532.65 315.28 544.87 315.28 544.87 309.79 526.41 309.79 526.41 336.27 545.25 336.27 545.25 330.79 532.65 330.79"/><polygon class="cls-3" points="460.68 232.61 419.75 232.61 419.75 258.47 452.71 258.47 452.71 259.37 452.71 290.53 460.68 290.53 460.68 259.37 460.68 258.47 460.68 258.47 460.68 232.61"/><rect x="419.75" y="265.15" width="25.87" height="25.87" transform="translate(710.77 -154.61) rotate(90)"/></g></svg>